<?xml version="1.0" encoding="utf-8"?>
<!-- Generator: Adobe Illustrator 21.1.0, SVG Export Plug-In . SVG Version: 6.00 Build 0)  -->
<svg version="1.1" id="Слой_1" xmlns="http://www.w3.org/2000/svg" xmlns:xlink="http://www.w3.org/1999/xlink" x="0px" y="0px"
	 viewBox="0 0 1000 576" style="enable-background:new 0 0 1000 576;" xml:space="preserve">
<style type="text/css">
	.st0{fill:#FFFFFF;stroke:#FFFFFF;stroke-miterlimit:10;}
	.st1{fill:none;stroke:#AAA2A2;stroke-width:2.2287;stroke-opacity:0.4;}
	.st2{fill:none;stroke:#AAA2A2;stroke-width:5.5718;stroke-opacity:0.4;}
	.st3{fill:none;stroke:#AAA2A2;stroke-width:3.3431;stroke-opacity:0.4;}
	.st4{fill:none;stroke:#AAA2A2;stroke-width:52.3754;stroke-opacity:0.4;}
	.st5{fill:none;stroke:#AAA2A2;stroke-width:4.4575;stroke-opacity:0.4;}
	.st6{fill:none;stroke:#AAA2A2;stroke-width:15.6012;stroke-opacity:0.4;}
	.st7{fill:none;stroke:#AAA2A2;stroke-width:22.2874;stroke-opacity:0.4;}
	.st8{fill:none;stroke:#AAA2A2;stroke-width:164.9267;stroke-opacity:0.4;}
	.st9{fill:none;stroke:#AAA2A2;stroke-width:13.3724;stroke-opacity:0.4;}
	.st10{fill:none;stroke:#AAA2A2;stroke-width:18.9443;stroke-opacity:0.4;}
	.st11{fill:none;stroke:#AAA2A2;stroke-width:42.346;stroke-opacity:0.4;}
	.st12{fill:none;stroke:#B7A192;stroke-width:2.2287;stroke-opacity:0.4;}
	.st13{fill:none;stroke:#E2DDC5;stroke-width:5.5718;stroke-opacity:0.4;}
	.st14{fill:none;stroke:#96BBBC;stroke-width:3.3431;stroke-opacity:0.4;}
	.st15{fill:none;stroke:#DAD8E2;stroke-width:52.3754;stroke-opacity:0.4;}
	.st16{fill:none;stroke:#B2D6B4;stroke-width:4.4575;stroke-opacity:0.4;}
	.st17{fill:none;stroke:#9BBDCE;stroke-width:15.6012;stroke-opacity:0.4;}
	.st18{fill:none;stroke:#C1A3B3;stroke-width:22.2874;stroke-opacity:0.4;}
	.st19{fill:none;stroke:#DDDDDD;stroke-width:15.6012;stroke-opacity:0.4;}
	.st20{fill:none;stroke:#6975BF;stroke-width:164.9267;stroke-opacity:0.4;}
	.st21{fill:none;stroke:#4F97A3;stroke-width:13;stroke-opacity:0.4;}
	.st22{fill:none;stroke:#316293;stroke-width:18.9443;stroke-opacity:0.4;}
	.st23{fill:none;stroke:#CCC0CE;stroke-width:18.9443;stroke-opacity:0.4;}
	.st24{fill:none;stroke:#BF698E;stroke-width:42.346;stroke-opacity:0.4;}
	.st25{fill:#BDBACC;}
	.st26{fill:#7A7A7A;}
	.st27{font-family:'Roboto-Medium';}
	.st28{font-size:11px;}
	.st29{fill:#7990BF;}
	.st30{fill:#DDDDDD;}
	.st31{fill:#69BF75;}
	.st32{font-size:10px;}
	.st33{fill:#E2DDC5;}
	.st34{fill:#CEA5B8;}
	.st35{fill:#A6C7DD;}
	.st36{fill:#848DB2;}
	.st37{font-size:12px;}
	.st38{fill:#C2B7C4;}
	.st39{fill:#B0CCCC;}
	.st40{fill:#DDCCD6;}
	.st41{fill:#75AAAF;}
	.st42{fill:#B7957D;}
	.st43{fill:#AAA2A2;}
	.st44{fill:#707070;}
	.st45{fill:#A8CCCB;}
	.st46{fill:#A5A2BC;}
	.st47{fill:#77B77D;}
	.st48{fill:#8BA7B7;}
	.st49{fill:#CEC9B6;}
	.st50{enable-background:new    ;}
	.st51{fill:#BFA6B6;}
	.st52{fill:#B7B6B7;}
	.st53{fill:#6E6E6E;}
	.st54{font-size:17px;}
</style>
<rect x="-0.5" y="-0.5" class="st0" width="1000" height="577"/>
<g transform="translate(0, 10)">
	<g>
		<path class="st1" d="M5,104.2c208.3,0,208.3-60,416.5-60"/>
		<path class="st2" d="M5,108.1c208.3,0,208.3-50,416.5-50"/>
		<path class="st3" d="M5,117c208.3,0,208.3-30,416.5-30"/>
		<path class="st4" d="M5,292c208.3,0,208.3,50,416.5,50"/>
		<path class="st5" d="M5,113.1c208.3,0,208.3-40,416.5-40"/>
		<path class="st6" d="M5,174.4c208.3,0,208.3,10,416.5,10"/>
		<path class="st7" d="M5,212.3c208.3,0,208.3,30,416.5,30"/>
		<path class="st6" d="M5,139.9c208.3,0,208.3-10,416.5-10"/>
		<path class="st8" d="M5,400.6c208.3,0,208.3,60,416.5,60"/>
		<path class="st9" d="M5,125.4c208.3,0,208.3-20,416.5-20"/>
		<path class="st10" d="M5,191.7c208.3,0,208.3,20,416.5,20"/>
		<path class="st10" d="M5,157.1c208.3,0,208.3,0,416.5,0"/>
		<path class="st11" d="M5,244.6c208.3,0,208.3,40,416.5,40"/>
		<path class="st12" d="M426.5,44.2c208.3,0,208.3,0,416.5,0"/>
		<path class="st13" d="M426.5,58.1c208.3,0,208.3,0,416.5,0"/>
		<path class="st14" d="M426.5,87c208.3,0,208.3,0,416.5,0"/>
		<path class="st15" d="M426.5,342c208.3,0,208.3,0,416.5,0"/>
		<path class="st16" d="M426.5,73.1c208.3,0,208.3,0,416.5,0"/>
		<path class="st17" d="M426.5,184.4c208.3,0,208.3,0,416.5,0"/>
		<path class="st18" d="M426.5,242.3c208.3,0,208.3,0,416.5,0"/>
		<path class="st19" d="M426.5,129.9c208.3,0,208.3,0,416.5,0"/>
		<path class="st20" d="M426.5,460.6c208.3,0,208.3,0,416.5,0"/>
		<path class="st21" d="M426.5,105.4c208.3,0,208.3,0,416.5,0"/>
		<path class="st22" d="M426.5,211.7c208.3,0,208.3,0,416.5,0"/>
		<path class="st23" d="M426.5,157.1c208.3,0,208.3,0,416.5,0"/>
		<path class="st24" d="M426.5,284.6c208.3,0,208.3,0,416.5,0"/>
	</g>
	<g>
		<rect x="421.5" y="315.8" class="st25" width="5" height="52.4"/>
		<text transform="matrix(1 0 0 1 371.0078 345.4956)" class="st26 st27 st28">10.1 млн</text>
		<rect x="421.5" y="202.2" class="st29" width="5" height="18.9"/>
		<text transform="matrix(1 0 0 1 372.0078 215.2024)" class="st26 st27 st28">10.6 млн</text>
		<rect x="421.5" y="122.1" class="st30" width="5" height="15.6"/>
		<text transform="matrix(1 0 0 1 371.0078 133.3842)" class="st26 st27 st28">14.4 млн</text>
		<rect x="421.5" y="70.9" class="st31" width="5" height="4.5"/>
		<text transform="matrix(1 0 0 1 381.5693 76.6393)" class="st26 st27 st32">1.7 млн</text>
		<rect x="421.5" y="55.3" class="st33" width="5" height="5.6"/>
		<text transform="matrix(1 0 0 1 381.5693 61.6246)" class="st26 st27 st32">1.9 млн</text>
		<rect x="421.5" y="263.5" class="st34" width="5" height="42.3"/>
		<text transform="matrix(1 0 0 1 371.0078 288.1349)" class="st26 st27 st28">20.9 млн</text>
		<rect x="421.5" y="176.6" class="st35" width="5" height="15.6"/>
		<text transform="matrix(1 0 0 1 376.5693 187.9296)" class="st26 st27 st28">4.9 млн</text>
		<rect x="421.5" y="378.2" class="st36" width="5" height="164.9"/>
		<text transform="matrix(1 0 0 1 371.0078 464.1467)" class="st26 st27 st37">60.7 млн</text>
		<rect x="421.5" y="147.7" class="st38" width="5" height="18.9"/>
		<text transform="matrix(1 0 0 1 376.5693 160.6569)" class="st26 st27 st28">6.4 млн</text>
		<rect x="421.5" y="85.4" class="st39" width="5" height="3.3"/>
		<text transform="matrix(1 0 0 1 380.1309 90.5396)" class="st26 st27 st32">0.8 млн</text>
		<rect x="421.5" y="231.2" class="st40" width="5" height="22.3"/>
		<text transform="matrix(1 0 0 1 374.5693 245.8182)" class="st26 st27 st28">8.01 млн</text>
		<rect x="421.5" y="98.7" class="st41" width="5" height="13.4"/>
		<text transform="matrix(1 0 0 1 376.5693 108.8974)" class="st26 st27 st28">8.3 млн</text>
		<rect x="421.5" y="43.1" class="st42" width="5" height="2.2"/>
		<text transform="matrix(1 0 0 1 381.1309 47.7244)" class="st26 st27 st32">0.9 млн</text>
		<g>
			<rect y="103.1" class="st43" width="5" height="380"/>
			<text transform="matrix(1 0 0 1 11 296.61)" class="st44 st27 st37">150 млн</text>
		</g>
		<rect x="843" y="85.4" class="st39" width="5" height="3.3"/>
		<text transform="matrix(1 0 0 1 856.7813 90.5396)" class="st45 st27 st32">Безпека</text>
		<rect x="843" y="315.8" class="st25" width="5" height="52.4"/>
		<text transform="matrix(1 0 0 1 854.8662 345.4956)" class="st46 st27 st28">Громадянське суспільство</text>
		<rect x="843" y="70.9" class="st31" width="5" height="4.5"/>
		<text transform="matrix(1 0 0 1 856.7813 76.6393)" class="st47 st27 st32">Дороги транспорт</text>
		<rect x="843" y="176.6" class="st35" width="5" height="15.6"/>
		<text transform="matrix(1 0 0 1 854.8662 187.9296)" class="st48 st27 st28">Екологія</text>
		<rect x="843" y="55.3" class="st33" width="5" height="5.6"/>
		<text transform="matrix(1 0 0 1 856.7812 61.6246)" class="st49 st27 st32">Інше</text>
		<rect x="842" y="231.2" class="st40" width="5" height="22.3"/>
		<text transform="matrix(1 0 0 1 854.8661 245.8182)" class="st50"><tspan x="0" y="0" class="st51 st27 st28">Комунальне господарство, </tspan><tspan x="0" y="13.2" class="st51 st27 st28">енергозбереження</tspan></text>
		<rect x="843" y="122.1" class="st30" width="5" height="15.6"/>
		<text transform="matrix(1 0 0 1 856.7813 133.3842)" class="st52 st27 st28">Культура, туризм</text>
		<rect x="843" y="378.2" class="st36" width="5" height="164.9"/>
		<text transform="matrix(1 0 0 1 854.8662 464.1467)" class="st36 st27 st28">Освіта</text>
		<rect x="843" y="98.7" class="st41" width="5" height="13.4"/>
		<text transform="matrix(1 0 0 1 856.7813 108.8974)" class="st41 st27 st28">Охорона здоров&apos;я</text>
		<rect x="843" y="202.2" class="st29" width="5" height="18.9"/>
		<text transform="matrix(1 0 0 1 854.8663 215.2024)" class="st29 st27 st28">Публічний простір</text>
		<rect x="843" y="147.7" class="st38" width="5" height="18.9"/>
		<text transform="matrix(1 0 0 1 854.8662 160.6569)" class="st38 st27 st28">Соціальний захист</text>
		<rect x="843" y="263.5" class="st34" width="5" height="42.3"/>
		<text transform="matrix(1 0 0 1 854.8662 288.1349)" class="st34 st27 st28">Спорт</text>
		<rect x="843.7" y="42.6" class="st42" width="5" height="2.2"/>
		<text transform="matrix(1 0 0 1 856.7646 47.2241)" class="st42 st27 st32">IT</text>
	</g>
</g>
<text transform="matrix(1 0 0 1 293 28)" class="st53 st27 st54">Cкільки мільйонів виграли проекти за різними категоріями</text>
<text transform="matrix(1 0 0 1 839 570)" class="st26 st27 st28">Дані: https://gb.kyivcity.gov.ua</text>
<text transform="matrix(1 0 0 1 4 568)" class="st26 st27 st28">*Категорії розміщені в порядку зростання кількості проектів </text>
</svg>
